<svg width="27" height="27" fill="none" xmlns="http://www.w3.org/2000/svg"><path d="M13.498 11.7a3.154 3.154 0 0 0 3.15-3.15 3.154 3.154 0 0 0-3.15-3.15 3.154 3.154 0 0 0-3.15 3.15 3.154 3.154 0 0 0 3.15 3.15zm0-5.4c1.24 0 2.25 1.01 2.25 2.25s-1.01 2.25-2.25 2.25c-1.241 0-2.25-1.01-2.25-2.25s1.009-2.25 2.25-2.25z" fill="#777"/><path d="m13.42 24.64 6.904-9.97c2.59-3.452 2.215-9.126-.801-12.142A8.572 8.572 0 0 0 13.42 0a8.573 8.573 0 0 0-6.102 2.528c-3.017 3.016-3.391 8.69-.812 12.128l6.914 9.985zM7.956 3.165A7.68 7.68 0 0 1 13.421.9a7.68 7.68 0 0 1 5.465 2.264c2.723 2.722 3.058 7.847.708 10.98l-6.173 8.915-6.184-8.929c-2.34-3.12-2.004-8.244.718-10.966z" fill="#777"/><path d="M18.953 19.353a.45.45 0 0 0-.105.894c4.732.557 7.252 2.058 7.252 2.928 0 1.221-4.793 2.925-12.6 2.925C5.693 26.1.9 24.396.9 23.175c0-.87 2.52-2.371 7.253-2.928a.45.45 0 0 0-.106-.894C3.31 19.911 0 21.483 0 23.175 0 25.075 4.637 27 13.5 27S27 25.076 27 23.175c0-1.692-3.31-3.264-8.047-3.822z" fill="#777"/></svg>