<svg width="27" height="21" fill="none" xmlns="http://www.w3.org/2000/svg"><path d="m25.9 7.306-3.806-4.2c-.307-.306-.7-.481-1.094-.481h-4.375v-.919C16.625.744 15.881 0 14.963 0H1.706C.744 0 0 .744 0 1.706v15.138c0 .831.7 1.531 1.531 1.531h.687A3.04 3.04 0 0 0 5.25 21a3.04 3.04 0 0 0 3.032-2.625h9.686A3.04 3.04 0 0 0 21 21a3.04 3.04 0 0 0 3.032-2.625h2.262V8.313c0-.394-.132-.744-.394-1.007zm-.7.569c.131.088.175.263.175.394v1.356h-6.563V5.25h3.982L25.2 7.875zM.875 9.188H7c.263 0 .438-.175.438-.438 0-.262-.175-.437-.438-.437H.875V7H5.25c.262 0 .437-.175.437-.437 0-.263-.175-.438-.437-.438H.875V1.706c0-.481.35-.83.831-.83H14.92a.83.83 0 0 1 .831.83V12.25H.875V9.188zM5.25 20.125a2.166 2.166 0 0 1-2.188-2.188c0-1.225.963-2.187 2.188-2.187s2.188.962 2.188 2.188a2.166 2.166 0 0 1-2.188 2.187zm10.5-2.625H8.282a3.037 3.037 0 0 0-2.745-2.611l-.031-.003c-.036-.003-.072-.006-.108-.007a3.159 3.159 0 0 0-.296 0c-.036.001-.072.004-.108.007l-.031.003A3.037 3.037 0 0 0 2.218 17.5h-.687a.673.673 0 0 1-.656-.656v-3.719H15.75V17.5zM21 20.125a2.166 2.166 0 0 1-2.188-2.188c0-1.225.963-2.187 2.188-2.187s2.188.962 2.188 2.188A2.166 2.166 0 0 1 21 20.125zm3.032-2.625a3.037 3.037 0 0 0-2.745-2.611l-.031-.003c-.036-.003-.072-.006-.108-.007a3.16 3.16 0 0 0-.296 0c-.036.001-.072.004-.108.007l-.031.003a3.037 3.037 0 0 0-2.745 2.611h-1.343v-14H21c.131 0 .306.088.437.175l.627.7h-3.383a.767.767 0 0 0-.744.744v4.637c0 .394.35.744.744.744h6.694v2.188h-2.188c-.262 0-.437.175-.437.437s.175.437.437.437h2.188V17.5h-1.343z" fill="#777"/><path d="M5.25 17.063a.878.878 0 0 0-.875.875c0 .48.394.875.875.875a.878.878 0 0 0 .875-.875.878.878 0 0 0-.875-.875zm15.75 0a.878.878 0 0 0-.875.875c0 .48.394.875.875.875a.878.878 0 0 0 .875-.875.878.878 0 0 0-.875-.875z" fill="#777"/></svg>