<svg width="24" height="25" fill="none" xmlns="http://www.w3.org/2000/svg"><mask id="a" fill="#fff"><path fill-rule="evenodd" clip-rule="evenodd" d="M5.572 5.629c.942 0 1.827.367 2.493 1.032l3.613 3.614a.67.67 0 0 0 .946 0l3.6-3.6a3.504 3.504 0 0 1 2.493-1.033h.433L14.578 1.07a3.646 3.646 0 0 0-5.156 0l-4.56 4.559h.71zm13.145 12.733a3.503 3.503 0 0 1-2.493-1.033l-3.6-3.6a.684.684 0 0 0-.946 0l-3.613 3.614a3.504 3.504 0 0 1-2.493 1.032h-.71l4.56 4.559a3.646 3.646 0 0 0 5.156 0l4.572-4.572h-.433zM20.169 6.66l2.763 2.763a3.646 3.646 0 0 1 0 5.156l-2.763 2.763a.526.526 0 0 0-.196-.04h-1.256c-.65 0-1.285-.263-1.744-.722l-3.6-3.6c-.652-.653-1.79-.652-2.444 0l-3.613 3.613a2.483 2.483 0 0 1-1.744.722H4.027a.525.525 0 0 0-.185.038L1.068 14.58a3.646 3.646 0 0 1 0-5.156L3.842 6.65c.058.022.12.037.185.037h1.545c.65 0 1.285.264 1.744.723l3.614 3.613a1.72 1.72 0 0 0 1.221.505c.443 0 .885-.168 1.222-.505l3.6-3.6a2.483 2.483 0 0 1 1.744-.723h1.256c.07 0 .135-.015.196-.04z"/></mask><path fill-rule="evenodd" clip-rule="evenodd" d="M5.572 5.629c.942 0 1.827.367 2.493 1.032l3.613 3.614a.67.67 0 0 0 .946 0l3.6-3.6a3.504 3.504 0 0 1 2.493-1.033h.433L14.578 1.07a3.646 3.646 0 0 0-5.156 0l-4.56 4.559h.71zm13.145 12.733a3.503 3.503 0 0 1-2.493-1.033l-3.6-3.6a.684.684 0 0 0-.946 0l-3.613 3.614a3.504 3.504 0 0 1-2.493 1.032h-.71l4.56 4.559a3.646 3.646 0 0 0 5.156 0l4.572-4.572h-.433zM20.169 6.66l2.763 2.763a3.646 3.646 0 0 1 0 5.156l-2.763 2.763a.526.526 0 0 0-.196-.04h-1.256c-.65 0-1.285-.263-1.744-.722l-3.6-3.6c-.652-.653-1.79-.652-2.444 0l-3.613 3.613a2.483 2.483 0 0 1-1.744.722H4.027a.525.525 0 0 0-.185.038L1.068 14.58a3.646 3.646 0 0 1 0-5.156L3.842 6.65c.058.022.12.037.185.037h1.545c.65 0 1.285.264 1.744.723l3.614 3.613a1.72 1.72 0 0 0 1.221.505c.443 0 .885-.168 1.222-.505l3.6-3.6a2.483 2.483 0 0 1 1.744-.723h1.256c.07 0 .135-.015.196-.04z" fill="#666"/><path d="m8.065 6.661.707-.707-.707.707zm3.613 3.614-.707.707.707-.707zm.946 0-.707-.708-.001.001.708.706zm3.6-3.6-.707-.708.707.707zm2.926-1.033v1h2.415l-1.708-1.707-.707.707zM14.578 1.07l-.707.707.707-.707zm-5.156 0 .707.707-.707-.707zm-4.56 4.559-.706-.707-1.707 1.707h2.414v-1zm11.362 11.7-.707.707.707-.707zm-3.6-3.6-.708.707.708-.706zm-4.559 3.614.707.707-.707-.707zm-3.202 1.032v-1H2.448l1.708 1.707.707-.707zm4.559 4.559-.707.707.707-.707zm5.156 0 .707.707-.707-.707zm4.572-4.572.707.707 1.707-1.707H19.15v1zm3.782-8.938-.707.707.707-.707zM20.17 6.66l.707-.707-.466-.467-.613.246.372.928zm2.763 7.92.707.706-.707-.707zm-2.763 2.762-.371.928.612.245.466-.466-.707-.707zm-3.196-.762.707-.707-.707.707zm-3.6-3.6-.708.707.708-.707zm-2.444 0-.707-.707.707.707zm-3.613 3.613-.707-.707.707.707zm-3.474.76-.707.707.456.456.603-.227-.352-.936zM1.068 14.58l-.707.707.707-.707zm0-5.156.707.707-.707-.707zM3.842 6.65l.352-.936-.603-.227-.456.456.707.707zm3.474.76-.707.707.707-.707zm3.614 3.613-.708.707.708-.707zm2.443 0-.707-.707.707.707zm3.6-3.6.707.707-.707-.707zm-8.2-1.47a4.504 4.504 0 0 0-3.2-1.324v2c.676 0 1.307.261 1.785.74l1.414-1.415zm3.612 3.614L8.772 5.954 7.358 7.368l3.613 3.614 1.414-1.415zm-.47.001a.33.33 0 0 1 .47 0l-1.414 1.414a1.67 1.67 0 0 0 2.361-.002l-1.416-1.412zm3.602-3.6-3.6 3.6 1.414 1.413 3.6-3.6-1.415-1.414zm3.2-1.326a4.504 4.504 0 0 0-3.2 1.325L16.93 7.38a2.504 2.504 0 0 1 1.786-.739v-2zm.433 0h-.433v2h.433v-2zm-5.279-2.865 4.572 4.572 1.414-1.414L15.285.363l-1.414 1.414zm-3.742 0a2.646 2.646 0 0 1 3.742 0L15.285.363a4.646 4.646 0 0 0-6.57 0l1.414 1.414zM5.57 6.336l4.559-4.56L8.715.364l-4.56 4.559L5.57 6.336zm.002-1.707h-.71v2h.71v-2zm9.945 13.408a4.504 4.504 0 0 0 3.2 1.325v-2a2.504 2.504 0 0 1-1.786-.74l-1.414 1.415zm-3.6-3.6 3.6 3.6 1.414-1.415-3.6-3.6-1.414 1.415zm.468 0a.333.333 0 0 1-.233.103.336.336 0 0 1-.236-.104l1.416-1.412a1.684 1.684 0 0 0-2.361-.001l1.414 1.414zM8.772 18.05l3.613-3.613-1.414-1.414-3.613 3.613 1.414 1.414zm-3.2 1.325a4.504 4.504 0 0 0 3.2-1.325l-1.414-1.415c-.478.478-1.11.74-1.786.74v2zm-.71 0h.71v-2h-.71v2zm5.267 2.852-4.56-4.56-1.413 1.415 4.559 4.559 1.414-1.414zm3.742 0a2.646 2.646 0 0 1-3.742 0L8.715 23.64a4.646 4.646 0 0 0 6.57 0l-1.414-1.414zm4.572-4.573-4.572 4.573 1.414 1.414 4.572-4.572-1.414-1.415zm.274 1.708h.433v-2h-.433v2zm4.922-10.645-2.763-2.763-1.414 1.414 2.763 2.763 1.414-1.414zm0 6.57a4.646 4.646 0 0 0 0-6.57l-1.414 1.414a2.646 2.646 0 0 1 0 3.742l1.414 1.414zm-2.763 2.763 2.763-2.763-1.414-1.414-2.763 2.763 1.414 1.414zm-.903.253a.474.474 0 0 1-.175-.032l.743-1.857a1.526 1.526 0 0 0-.568-.11v2zm-1.256 0h1.256v-2h-1.256v2zm-2.452-1.016a3.482 3.482 0 0 0 2.452 1.016v-2a1.48 1.48 0 0 1-1.037-.43l-1.415 1.414zm-3.6-3.598 3.6 3.599 1.415-1.415-3.6-3.599-1.414 1.415zm-1.029 0c.263-.263.768-.263 1.03-.001l1.414-1.413c-1.043-1.045-2.815-1.044-3.858-.001l1.414 1.414zM8.023 17.3l3.613-3.613-1.414-1.414-3.613 3.613L8.023 17.3zm-2.45 1.015c.914 0 1.804-.368 2.45-1.015L6.61 15.887c-.271.271-.653.43-1.037.43v2zm-1.546 0h1.545v-2H4.027v2zm.167-.026a.485.485 0 0 1-.167.026v-2c-.224 0-.41.054-.538.102l.705 1.872zM.361 15.287l2.774 2.774 1.414-1.414-2.774-2.774-1.414 1.414zm0-6.57a4.646 4.646 0 0 0 0 6.57l1.414-1.414a2.646 2.646 0 0 1 0-3.742L.361 8.717zm2.774-2.774L.36 8.717l1.414 1.414 2.774-2.774-1.414-1.414zm.892-.256c.094 0 .156.023.167.027L3.49 7.586c.128.048.313.101.538.101v-2zm1.545 0H4.027v2h1.545v-2zm2.452 1.016a3.483 3.483 0 0 0-2.452-1.016v2c.384 0 .766.158 1.037.43l1.415-1.414zm3.613 3.613L8.023 6.703 6.61 8.117l3.613 3.613 1.415-1.414zm.514.212a.724.724 0 0 1-.515-.212l-1.413 1.414a2.724 2.724 0 0 0 1.928.798v-2zm.515-.212a.722.722 0 0 1-.515.212v2c.696 0 1.397-.266 1.929-.798l-1.414-1.414zm3.6-3.6-3.6 3.6 1.414 1.414 3.6-3.6-1.415-1.414zm2.45-1.016a3.48 3.48 0 0 0-2.45 1.016L17.68 8.13a1.48 1.48 0 0 1 1.037-.43v-2zm1.257 0h-1.256v2h1.256v-2zm-.176.033a.476.476 0 0 1 .176-.033v2c.218 0 .41-.048.568-.111l-.744-1.856z" fill="#666" mask="url(#a)"/></svg>