<svg xmlns:xlink="http://www.w3.org/1999/xlink" xmlns="http://www.w3.org/2000/svg" width="20" height="18" viewBox="0 0 20 18" fill="none">
<g clip-path="url(#clip0_150_1343)">
<path d="M5.51075e-06 0.820002C-0.00025828 0.712245 0.0207716 0.605496 0.061887 0.50589C0.103002 0.406284 0.163393 0.315783 0.23959 0.239587C0.315786 0.16339 0.406287 0.102999 0.505893 0.061884C0.605499 0.0207685 0.712247 -0.000261339 0.820005 2.45121e-06H2.37501C2.7365 0.000843313 3.09037 0.10404 3.39565 0.297649C3.70092 0.491258 3.94513 0.767362 4.10001 1.094H18.153C18.3629 1.09393 18.5699 1.14222 18.7581 1.23511C18.9463 1.32801 19.1106 1.46302 19.2381 1.62966C19.3657 1.79631 19.4532 1.99011 19.4937 2.19602C19.5343 2.40194 19.5269 2.61443 19.472 2.817L18.072 8.023C17.9309 8.54454 17.6222 9.00525 17.1937 9.33427C16.7651 9.66329 16.2403 9.84238 15.7 9.844H5.83401L6.01901 10.818C6.05521 11.0056 6.15553 11.1747 6.30277 11.2964C6.45001 11.4181 6.63499 11.4848 6.82601 11.485H16.68C16.8976 11.485 17.1063 11.5714 17.2602 11.7253C17.4141 11.8792 17.5005 12.0879 17.5005 12.3055C17.5005 12.5231 17.4141 12.7318 17.2602 12.8857C17.1063 13.0396 16.8976 13.126 16.68 13.126H6.82601C6.25322 13.1265 5.69824 12.9269 5.25695 12.5617C4.81565 12.1966 4.51573 11.6888 4.40901 11.126L2.64601 1.863C2.63426 1.80017 2.60076 1.74349 2.55139 1.70289C2.50201 1.66229 2.43992 1.64038 2.37601 1.641H0.820005C0.712163 1.64127 0.605333 1.6202 0.505661 1.57903C0.40599 1.53785 0.315444 1.47737 0.239234 1.40107C0.163024 1.32476 0.102655 1.23414 0.0615984 1.13442C0.0205421 1.0347 -0.000390324 0.927844 5.51075e-06 0.820002ZM4.37501 15.859C4.37501 15.5344 4.47125 15.2172 4.65156 14.9473C4.83188 14.6775 5.08817 14.4671 5.38802 14.3429C5.68788 14.2187 6.01783 14.1862 6.33615 14.2495C6.65447 14.3129 6.94687 14.4691 7.17637 14.6986C7.40587 14.9281 7.56216 15.2205 7.62547 15.5389C7.68879 15.8572 7.6563 16.1871 7.53209 16.487C7.40789 16.7868 7.19756 17.0431 6.9277 17.2234C6.65784 17.4038 6.34056 17.5 6.01601 17.5C5.58079 17.5 5.16339 17.3271 4.85564 17.0194C4.5479 16.7116 4.37501 16.2942 4.37501 15.859ZM15.859 14.218C16.1836 14.218 16.5008 14.3142 16.7707 14.4946C17.0406 14.6749 17.2509 14.9312 17.3751 15.231C17.4993 15.5309 17.5318 15.8608 17.4685 16.1791C17.4052 16.4975 17.2489 16.7899 17.0194 17.0194C16.7899 17.2489 16.4975 17.4052 16.1791 17.4685C15.8608 17.5318 15.5309 17.4993 15.231 17.3751C14.9312 17.2509 14.6749 17.0406 14.4946 16.7707C14.3142 16.5008 14.218 16.1836 14.218 15.859C14.2183 15.424 14.3913 15.0068 14.699 14.6993C15.0067 14.3918 15.424 14.218 15.859 14.218Z" fill="#447097"/>
</g>
<defs>
<clipPath id="clip0_150_1343">
<rect width="19.521" height="17.5" fill="white"/>
</clipPath>
</defs>
</svg>