<?xml version="1.0" encoding="UTF-8"?>
<svg id="Camada_1" xmlns="http://www.w3.org/2000/svg" viewBox="0 0 200 200">
  <defs>
    <style>
      .cls-1 {
        fill: #fff;
      }

      .cls-1, .cls-2 {
        fill-rule: evenodd;
      }

      .cls-3 {
        fill: #bf1818;
        stroke: #fff;
      }

      .cls-2 {
        fill: #991717;
      }
    </style>
  </defs>
  <path class="cls-3" d="M187.05,165.28h2.12v-72c0-34-27.57-61.57-61.57-61.57h-55.2c-34,0-61.57,27.57-61.57,61.57v10.43c0,34,27.57,61.57,61.57,61.57h114.65Z"/>
  <path class="cls-2" d="M121.15,52.63c-3.77-1.37-8.55-1.1-10.74,1.04l-57.6,55.89,21.56,25.21-1.97-.18,23.29,30.17h92.92l-.12-46.65L121.15,52.63Z"/>
  <path class="cls-1" d="M63.44,77.71h17.76l3.15-18.56c.26-1.5,1.1-2.86,2.24-3.84,1.14-.98,2.61-1.59,4.11-1.59h25.31c.32,0,.64.03.94.08,1.19.21,2.19.81,2.9,1.67.7.86,1.11,1.96,1.11,3.18,0,.32-.03.64-.09.98l-3.39,18.07h19.77c.33,0,.64.03.95.09,1.21.21,2.22.82,2.95,1.7.72.87,1.13,1.99,1.13,3.23,0,.32-.03.65-.09.99l-3.82,24.49c-.27,1.53-1.12,2.91-2.28,3.9-1.17,1-2.65,1.62-4.18,1.62h-20.91l-2.95,19.12c-.26,1.5-1.11,2.86-2.25,3.84-1.15.98-2.61,1.59-4.11,1.59h-25.31c-.33,0-.64-.03-.94-.08-1.19-.21-2.19-.81-2.89-1.68-.7-.85-1.11-1.96-1.11-3.18,0-.31.03-.64.09-.98l3.5-18.64h-17.27c-.33,0-.65-.03-.95-.08-1.21-.21-2.23-.83-2.95-1.7-.71-.87-1.12-1.99-1.12-3.23,0-.32.03-.66.09-1l4.14-24.49c.26-1.53,1.12-2.91,2.28-3.91,1.17-1,2.65-1.62,4.18-1.62"/>
</svg>