<svg width="27" height="17" viewBox="0 0 27 17" fill="none" xmlns="http://www.w3.org/2000/svg">
<g id="Camada_1" clip-path="url(#clip0_423_2095)">
<path id="Vector" d="M9.41754 7.00051L13.2002 1.21762L2.87817 0.00591783C2.59479 -0.0271598 2.32006 0.106291 2.19631 0.343918L0.0727617 4.25164C-0.117813 4.60523 0.0843118 5.02345 0.486499 5.12611L8.61687 7.27539C8.94316 7.35409 9.25666 7.24003 9.41754 7.00051ZM26.33 4.25164L24.2061 0.343158C24.0823 0.105531 23.8035 -0.0279202 23.5201 0.00553763L13.2002 1.21762L16.9844 7.00051C17.1391 7.23813 17.4539 7.35257 17.748 7.27653L25.9114 5.12801C26.3177 5.01965 26.5157 4.60143 26.33 4.25164ZM17.5644 8.56694C16.8632 8.56694 16.2081 8.22666 15.8525 7.68335L13.2002 3.65092L10.5519 7.68107C10.193 8.22856 9.54129 8.57074 8.84004 8.57074C8.65441 8.57074 8.46879 8.54717 8.29347 8.50002L2.64016 7.01571V13.7111C2.64016 14.2688 3.05266 14.7509 3.64047 14.8832L12.5546 16.9295C12.9774 17.0242 13.4159 17.0242 13.8333 16.9295L22.7598 14.8832C23.3105 14.7795 23.7602 14.2966 23.7602 13.7453V7.01571L18.1089 8.4947C17.9357 8.54033 17.75 8.56694 17.5644 8.56694Z" fill="#447097"/>
</g>
<defs>
<clipPath id="clip0_423_2095">
<rect width="26.4" height="17" fill="white"/>
</clipPath>
</defs>
</svg>
