<svg width="26" height="22" viewBox="0 0 26 22" fill="none" xmlns="http://www.w3.org/2000/svg">
<path id="Vector" d="M4.55 0C3.47344 0 2.6 0.923828 2.6 2.0625V4.125H0.65C0.2925 4.125 0 4.43437 0 4.8125C0 5.19063 0.2925 5.5 0.65 5.5H2.6H11.05C11.4075 5.5 11.7 5.80937 11.7 6.1875C11.7 6.56563 11.4075 6.875 11.05 6.875H2.6H1.95C1.5925 6.875 1.3 7.18437 1.3 7.5625C1.3 7.94063 1.5925 8.25 1.95 8.25H2.6H9.75C10.1075 8.25 10.4 8.55937 10.4 8.9375C10.4 9.31563 10.1075 9.625 9.75 9.625H2.6H0.65C0.2925 9.625 0 9.93437 0 10.3125C0 10.6906 0.2925 11 0.65 11H2.6H8.45C8.8075 11 9.1 11.3094 9.1 11.6875C9.1 12.0656 8.8075 12.375 8.45 12.375H2.6V17.875C2.6 20.1523 4.34687 22 6.5 22C8.65312 22 10.4 20.1523 10.4 17.875H15.6C15.6 20.1523 17.3469 22 19.5 22C21.6531 22 23.4 20.1523 23.4 17.875H24.7C25.4191 17.875 26 17.2605 26 16.5C26 15.7395 25.4191 15.125 24.7 15.125V12.375V11V10.1965C24.7 9.46602 24.4278 8.76562 23.9403 8.25L20.8 4.92852C20.3125 4.41289 19.6503 4.125 18.9597 4.125H16.9V2.0625C16.9 0.923828 16.0266 0 14.95 0H4.55ZM22.1 10.1965V11H16.9V6.875H18.9597L22.1 10.1965ZM6.5 15.8125C7.01717 15.8125 7.51316 16.0298 7.87886 16.4166C8.24455 16.8034 8.45 17.328 8.45 17.875C8.45 18.422 8.24455 18.9466 7.87886 19.3334C7.51316 19.7202 7.01717 19.9375 6.5 19.9375C5.98283 19.9375 5.48684 19.7202 5.12114 19.3334C4.75545 18.9466 4.55 18.422 4.55 17.875C4.55 17.328 4.75545 16.8034 5.12114 16.4166C5.48684 16.0298 5.98283 15.8125 6.5 15.8125ZM17.55 17.875C17.55 17.328 17.7554 16.8034 18.1211 16.4166C18.4868 16.0298 18.9828 15.8125 19.5 15.8125C20.0172 15.8125 20.5132 16.0298 20.8789 16.4166C21.2446 16.8034 21.45 17.328 21.45 17.875C21.45 18.422 21.2446 18.9466 20.8789 19.3334C20.5132 19.7202 20.0172 19.9375 19.5 19.9375C18.9828 19.9375 18.4868 19.7202 18.1211 19.3334C17.7554 18.9466 17.55 18.422 17.55 17.875Z" fill="#447097"/>
</svg>
