<svg xmlns:xlink="http://www.w3.org/1999/xlink" xmlns="http://www.w3.org/2000/svg" width="25" height="21" viewBox="0 0 25 21" fill="none">
              <path d="M4.375 0C3.33984 0 2.5 0.881836 2.5 1.96875V3.9375H0.625C0.28125 3.9375 0 4.23281 0 4.59375C0 4.95469 0.28125 5.25 0.625 5.25H2.5H10.625C10.9688 5.25 11.25 5.54531 11.25 5.90625C11.25 6.26719 10.9688 6.5625 10.625 6.5625H2.5H1.875C1.53125 6.5625 1.25 6.85781 1.25 7.21875C1.25 7.57969 1.53125 7.875 1.875 7.875H2.5H9.375C9.71875 7.875 10 8.17031 10 8.53125C10 8.89219 9.71875 9.1875 9.375 9.1875H2.5H0.625C0.28125 9.1875 0 9.48281 0 9.84375C0 10.2047 0.28125 10.5 0.625 10.5H2.5H8.125C8.46875 10.5 8.75 10.7953 8.75 11.1562C8.75 11.5172 8.46875 11.8125 8.125 11.8125H2.5V17.0625C2.5 19.2363 4.17969 21 6.25 21C8.32031 21 10 19.2363 10 17.0625H15C15 19.2363 16.6797 21 18.75 21C20.8203 21 22.5 19.2363 22.5 17.0625H23.75C24.4414 17.0625 25 16.476 25 15.75C25 15.024 24.4414 14.4375 23.75 14.4375V11.8125V10.5V9.73301C23.75 9.03574 23.4883 8.36719 23.0195 7.875L20 4.70449C19.5312 4.2123 18.8945 3.9375 18.2305 3.9375H16.25V1.96875C16.25 0.881836 15.4102 0 14.375 0H4.375ZM21.25 9.73301V10.5H16.25V6.5625H18.2305L21.25 9.73301ZM6.25 15.0938C6.74728 15.0938 7.22419 15.3012 7.57583 15.6704C7.92746 16.0396 8.125 16.5404 8.125 17.0625C8.125 17.5846 7.92746 18.0854 7.57583 18.4546C7.22419 18.8238 6.74728 19.0312 6.25 19.0312C5.75272 19.0312 5.27581 18.8238 4.92417 18.4546C4.57254 18.0854 4.375 17.5846 4.375 17.0625C4.375 16.5404 4.57254 16.0396 4.92417 15.6704C5.27581 15.3012 5.75272 15.0938 6.25 15.0938ZM16.875 17.0625C16.875 16.5404 17.0725 16.0396 17.4242 15.6704C17.7758 15.3012 18.2527 15.0938 18.75 15.0938C19.2473 15.0938 19.7242 15.3012 20.0758 15.6704C20.4275 16.0396 20.625 16.5404 20.625 17.0625C20.625 17.5846 20.4275 18.0854 20.0758 18.4546C19.7242 18.8238 19.2473 19.0312 18.75 19.0312C18.2527 19.0312 17.7758 18.8238 17.4242 18.4546C17.0725 18.0854 16.875 17.5846 16.875 17.0625Z" fill="#447097"></path>
            </svg>